<svg width="13" height="10" viewBox="0 0 13 10" fill="none" xmlns="http://www.w3.org/2000/svg">
<path d="M12.8704 1.8634C12.4068 2.04076 11.9151 2.15724 11.4117 2.20898C11.9423 1.93453 12.3395 1.50259 12.5291 0.993654C12.0311 1.24996 11.4852 1.42958 10.9161 1.52674C10.5339 1.17305 10.0272 0.938488 9.47494 0.859508C8.92266 0.780528 8.35567 0.86156 7.86213 1.09C7.36858 1.31845 6.97614 1.68151 6.74581 2.12274C6.51547 2.56397 6.46015 3.05865 6.58844 3.52988C5.57856 3.48611 4.59061 3.25915 3.68873 2.86374C2.78686 2.46833 1.99122 1.91332 1.35347 1.23472C1.12772 1.57004 1.0091 1.95123 1.00973 2.33923C1.00973 3.10079 1.45792 3.77358 2.13932 4.16748C1.73607 4.1565 1.3417 4.06232 0.989083 3.8928V3.92011C0.989205 4.4273 1.19215 4.91885 1.5635 5.31141C1.93486 5.70398 2.45177 5.97339 3.02659 6.07398C2.65226 6.16171 2.25975 6.17464 1.87879 6.1118C2.04086 6.54837 2.35674 6.93018 2.78221 7.20376C3.20768 7.47735 3.72143 7.62901 4.25153 7.63753C3.72468 7.99536 3.12144 8.25989 2.4763 8.41597C1.83116 8.57206 1.15678 8.61665 0.491699 8.54718C1.65268 9.19289 3.00418 9.53569 4.38453 9.53457C9.05654 9.53457 11.6115 6.18743 11.6115 3.28461C11.6115 3.19007 11.6084 3.09448 11.6036 3.001C12.1009 2.69016 12.5301 2.30511 12.871 1.86392L12.8704 1.8634Z" fill="#2B2B2B"/>
</svg>
