<svg width="13" height="9" viewBox="0 0 13 9" fill="none" xmlns="http://www.w3.org/2000/svg">
<path d="M12.6996 1.30562C12.9772 2.24154 12.9772 4.19531 12.9772 4.19531C12.9772 4.19531 12.9772 6.14908 12.6996 7.085C12.5454 7.60233 12.0941 8.00936 11.5227 8.14697C10.4848 8.39697 6.90411 8.39697 6.90411 8.39697C6.90411 8.39697 3.32526 8.39697 2.28555 8.14697C1.71165 8.00726 1.26103 7.60075 1.10859 7.085C0.831055 6.14908 0.831055 4.19531 0.831055 4.19531C0.831055 4.19531 0.831055 2.24154 1.10859 1.30562C1.26285 0.788291 1.71408 0.381255 2.28555 0.243651C3.32526 -0.00634775 6.90411 -0.00634766 6.90411 -0.00634766C6.90411 -0.00634766 10.4848 -0.00634775 11.5227 0.243651C12.0966 0.383356 12.5472 0.789867 12.6996 1.30562ZM5.6895 6.03353L9.33334 4.19531L5.6895 2.35708V6.03353Z" fill="#2B2B2B"/>
</svg>
