<svg width="13" height="12" viewBox="0 0 13 12" fill="none" xmlns="http://www.w3.org/2000/svg">
<path d="M11.3589 5.97064C11.3091 5.14392 10.9766 4.34859 10.4036 3.68547C10.229 3.84809 10.0424 4.00072 9.84489 4.1424C9.23815 4.57824 8.56013 4.93398 7.83289 5.19806C7.93431 5.38189 8.02723 5.55993 8.10921 5.728V5.72957C8.13235 5.77653 8.15462 5.82381 8.17602 5.87138C9.09548 5.78209 10.0647 5.81466 11.0042 5.92442C11.1293 5.93913 11.2472 5.95489 11.3589 5.97064ZM5.65934 2.05785C6.25118 2.77905 6.79695 3.52771 7.29421 4.30048C8.03694 4.04733 8.65093 3.72801 9.14528 3.37244C9.31687 3.25014 9.4784 3.11764 9.62869 2.97591C8.75477 2.34026 7.64906 1.99237 6.50714 1.99377C6.22294 1.99361 5.93927 2.01487 5.65934 2.05732V2.05785ZM1.80234 5.14344C2.21605 5.13441 2.62928 5.11286 3.04125 5.07884C4.03701 5.00181 5.02427 4.85747 5.99397 4.64712C5.48718 3.88568 4.94002 3.14488 4.35424 2.42707C3.72855 2.69513 3.17683 3.07644 2.73653 3.54512C2.29622 4.01381 1.97762 4.55891 1.80234 5.14344ZM2.73152 8.83985C2.96715 8.54206 3.27688 8.20697 3.68803 7.84248C4.57105 7.05992 5.61319 6.45068 6.8193 6.11455L6.85695 6.1051C6.75674 5.91392 6.66261 5.74323 6.56787 5.58251C5.45286 5.8635 4.27833 6.03892 3.10805 6.12978C2.53718 6.17442 2.02522 6.19386 1.64869 6.19701C1.64762 7.1595 2.03026 8.09288 2.73213 8.83985H2.73152ZM8.3321 10.0898C8.0979 9.06845 7.76639 8.06556 7.34097 7.09143C6.12515 7.47326 5.15649 8.03156 4.40768 8.69752C4.10549 8.96137 3.83731 9.25282 3.60786 9.56674C4.44522 10.1071 5.46238 10.3984 6.50714 10.3971C7.13261 10.3979 7.75234 10.2939 8.3321 10.0909V10.0898ZM9.46958 9.52524C10.4177 8.89487 11.0637 7.98413 11.2836 6.96749C11.0771 6.92284 10.8154 6.8782 10.5275 6.84354C9.88749 6.76383 9.23806 6.758 8.59627 6.8262C8.95766 7.70794 9.24943 8.60987 9.46958 9.52577V9.52524ZM6.50714 11.4475C3.15299 11.4475 0.434082 9.09615 0.434082 6.19543C0.434082 3.29471 3.15299 0.943359 6.50714 0.943359C9.86129 0.943359 12.5802 3.29471 12.5802 6.19543C12.5802 9.09615 9.86129 11.4475 6.50714 11.4475Z" fill="#2B2B2B"/>
</svg>
