<svg width="13" height="12" viewBox="0 0 13 12" fill="none" xmlns="http://www.w3.org/2000/svg">
<path d="M6.09601 0.943359C7.74606 0.943359 7.95193 0.948611 8.59932 0.974872C9.2461 1.00113 9.6864 1.08884 10.0739 1.21909C10.4747 1.3525 10.8123 1.53317 11.15 1.82466C11.4588 2.08721 11.6978 2.40479 11.8502 2.75532C12.0002 3.08988 12.1023 3.47118 12.1326 4.03053C12.1612 4.5904 12.1691 4.76844 12.1691 6.19543C12.1691 7.62242 12.163 7.80046 12.1326 8.36033C12.1023 8.91968 12.0002 9.30046 11.8502 9.63554C11.6982 9.98626 11.4592 10.3039 11.15 10.5662C10.8463 10.8332 10.4791 11.0398 10.0739 11.1718C9.68701 11.3015 9.2461 11.3897 8.59932 11.416C7.95193 11.4407 7.74606 11.4475 6.09601 11.4475C4.44596 11.4475 4.24008 11.4423 3.59269 11.416C2.94591 11.3897 2.50562 11.3015 2.11815 11.1718C1.71267 11.0402 1.34537 10.8335 1.04201 10.5662C0.733137 10.3037 0.494177 9.9861 0.341785 9.63554C0.191173 9.30098 0.0897528 8.91968 0.0593875 8.36033C0.0308442 7.80046 0.0229492 7.62242 0.0229492 6.19543C0.0229492 4.76844 0.0290222 4.5904 0.0593875 4.03053C0.0897528 3.47066 0.191173 3.09041 0.341785 2.75532C0.493755 2.40458 0.732771 2.0869 1.04201 1.82466C1.34546 1.55745 1.71273 1.35078 2.11815 1.21909C2.50562 1.08884 2.94531 1.00113 3.59269 0.974872C4.24008 0.950187 4.44596 0.943359 6.09601 0.943359ZM6.09601 3.5694C5.29067 3.5694 4.51832 3.84607 3.94886 4.33854C3.3794 4.83102 3.05948 5.49896 3.05948 6.19543C3.05948 6.8919 3.3794 7.55984 3.94886 8.05232C4.51832 8.5448 5.29067 8.82147 6.09601 8.82147C6.90135 8.82147 7.6737 8.5448 8.24316 8.05232C8.81262 7.55984 9.13254 6.8919 9.13254 6.19543C9.13254 5.49896 8.81262 4.83102 8.24316 4.33854C7.6737 3.84607 6.90135 3.5694 6.09601 3.5694ZM10.0435 3.43809C10.0435 3.26398 9.96352 3.09699 9.82115 2.97387C9.67879 2.85075 9.4857 2.78158 9.28436 2.78158C9.08303 2.78158 8.88994 2.85075 8.74758 2.97387C8.60521 3.09699 8.52523 3.26398 8.52523 3.43809C8.52523 3.61221 8.60521 3.7792 8.74758 3.90232C8.88994 4.02543 9.08303 4.0946 9.28436 4.0946C9.4857 4.0946 9.67879 4.02543 9.82115 3.90232C9.96352 3.7792 10.0435 3.61221 10.0435 3.43809ZM6.09601 4.61981C6.57921 4.61981 7.04262 4.78581 7.3843 5.0813C7.72597 5.37678 7.91793 5.77755 7.91793 6.19543C7.91793 6.61331 7.72597 7.01408 7.3843 7.30956C7.04262 7.60505 6.57921 7.77105 6.09601 7.77105C5.61281 7.77105 5.14939 7.60505 4.80772 7.30956C4.46604 7.01408 4.27409 6.61331 4.27409 6.19543C4.27409 5.77755 4.46604 5.37678 4.80772 5.0813C5.14939 4.78581 5.61281 4.61981 6.09601 4.61981Z" fill="#2B2B2B"/>
</svg>
